<svg xmlns="http://www.w3.org/2000/svg" width="491" height="400" viewBox="0 0 491 400">
<g>
<path d="M 240.00 400.00 L 0.00 400.00 L 45.75 399.88 C74.55,399.80 89.39,399.45 85.81,398.92 C41.11,392.36 6.88,357.33 2.02,313.15 C-1.79,278.60 14.68,242.83 43.52,222.99 C50.70,218.04 65.72,211.30 75.04,208.83 C83.40,206.61 84.40,206.58 161.75,206.25 L 240.00 205.92 L 240.00 400.00 ZM 412.19 191.53 C406.93,192.75 392.99,193.00 328.94,193.00 L 252.00 193.00 L 252.00 0.91 L 330.25 1.24 C408.05,1.56 408.55,1.58 416.37,3.83 C433.87,8.86 448.36,17.42 461.07,30.25 C470.10,39.37 474.44,45.54 480.02,57.21 C486.62,71.01 488.35,79.13 488.40,96.50 C488.44,109.78 488.14,112.61 485.77,121.18 C480.87,138.84 474.59,150.13 462.62,162.75 C448.38,177.76 432.54,186.81 412.19,191.53 Z" fill="rgb(45,45,46)"/>
<path d="M 0.00 0.00 L 240.00 0.00 L 240.00 194.08 L 161.75 193.77 C84.83,193.46 83.37,193.42 75.76,191.27 C57.10,186.01 43.61,178.40 30.97,166.00 C21.11,156.33 15.40,148.32 10.01,136.62 C0.58,116.10 -1.12,93.34 5.11,70.86 C15.26,34.21 46.96,6.74 85.58,1.11 C89.47,0.54 75.78,0.20 45.75,0.12 Z" fill="rgb(79,79,79)"/>
<path d="M 412.19 191.53 C415.05,190.87 417.83,190.12 420.53,189.28 C418.43,189.96 416.26,190.62 414.00,191.26 C406.70,193.33 404.43,193.40 328.75,193.74 L 251.00 194.09 L 251.00 0.00 L 491.00 0.00 L 443.25 0.14 C408.75,0.24 397.30,0.54 402.00,1.23 C404.06,1.53 406.08,1.87 408.05,2.25 C399.91,1.54 382.54,1.46 330.25,1.24 L 252.00 0.91 L 252.00 193.00 L 328.94 193.00 C392.99,193.00 406.93,192.75 412.19,191.53 ZM 435.75 183.13 C445.62,178.12 454.39,171.43 462.62,162.75 C454.14,171.70 445.83,178.11 435.75,183.13 ZM 436.38 11.81 C445.33,16.45 453.42,22.53 461.07,30.25 C453.55,22.66 445.41,16.56 436.38,11.81 Z" fill="rgb(142,142,142)"/>
<path d="M 0.00 200.00 L 0.00 0.00 L 45.75 0.12 C75.78,0.20 89.47,0.54 85.58,1.11 C46.96,6.74 15.26,34.21 5.11,70.86 C-1.12,93.34 0.58,116.10 10.01,136.62 C15.40,148.32 21.11,156.33 30.97,166.00 C43.61,178.40 57.10,186.01 75.76,191.27 C83.37,193.42 84.83,193.46 161.75,193.77 L 240.00 194.08 L 240.00 97.04 L 240.00 0.00 L 245.50 0.00 L 251.00 0.00 L 251.00 97.05 L 251.00 194.09 L 328.75 193.74 C404.43,193.40 406.70,193.33 414.00,191.26 C435.38,185.21 448.77,177.36 462.62,162.75 C474.59,150.13 480.87,138.84 485.77,121.18 C488.14,112.61 488.44,109.78 488.40,96.50 C488.35,79.13 486.62,71.01 480.02,57.21 C474.44,45.54 470.10,39.37 461.07,30.25 C444.75,13.78 426.47,4.80 402.00,1.23 C397.30,0.54 408.75,0.24 443.25,0.14 L 491.00 0.00 L 491.00 200.00 L 491.00 400.00 L 365.50 400.00 L 240.00 400.00 L 240.00 302.96 L 240.00 205.92 L 161.75 206.25 C84.40,206.58 83.40,206.61 75.04,208.83 C65.72,211.30 50.70,218.04 43.52,222.99 C14.68,242.83 -1.79,278.60 2.02,313.15 C6.88,357.33 41.11,392.36 85.81,398.92 C89.39,399.45 74.55,399.80 45.75,399.88 L 0.00 400.00 L 0.00 200.00 Z" fill="rgb(254,254,254)"/>
</g>
</svg>